# xmcd
#
# Track frame offsets:
#	150
#	15763
#	30753
#	46363
#	66164
#	84093
#	96813
#	112993
#	130546
#	144277
#	163746
#	178649
#	194235
#	212233
#	230382
#	248360
#	264858
#	284960
#	306666
#	323766
#	339624
#
# Disc length: 4777 seconds
#
# Revision: 0
# Processed by: cddbd v1.5.2PL0 Copyright (c) Steve Scherf et al.
# Submitted via: audiograbber 1.83.01
#
DISCID=1d12a715
DTITLE=Various Artist - R&B Collection No.1.
DYEAR=2006
DGENRE=R&B
TTITLE0=MC Dynamite and N'Pans and Mili-JJ. - Infiniti No. 1.
TTITLE1=Dato and Лигалайз. - Джаная.
TTITLE2=Лигалайз feat. Богдан Титомир and N'Pans. - Почувствуй силу.
TTITLE3=Tommy и Кнара. - Посвящение.
TTITLE4=Дерево жизни. - Надежды нет.
TTITLE5=Караулова Юлианна. - Дождь плачет.
TTITLE6=White Hot Ice. - Вован Кожемякин.
TTITLE7=N'Pans. - Я тебе этого никогда не говорил.
TTITLE8=Теона Дольникова. - Неправда.
TTITLE9=MC Dynamite. - Легенда - Монахи.
TTITLE10=Децл. - У меня есть план.
TTITLE11=Сюзанна. - Амазонка.
TTITLE12=Дядя Звонкий. - Я верю в любовь.
TTITLE13=Vалери. - Война.
TTITLE14=MC Dynamite feat. Насыров. - Мартовский снег.
TTITLE15=Стася. - Не подходи.
TTITLE16=White Hot Ice. - Растаман.
TTITLE17=Tommy. - Москва.
TTITLE18=Искра feat. Децл. - On And On.
TTITLE19=Cottonclub. - Доча.
TTITLE20=MC Dynamite and N'Pans and Теона Дольникова. - D'LUX Promo.
EXTD=
EXTT0=
EXTT1=
EXTT2=
EXTT3=
EXTT4=
EXTT5=
EXTT6=
EXTT7=
EXTT8=
EXTT9=
EXTT10=
EXTT11=
EXTT12=
EXTT13=
EXTT14=
EXTT15=
EXTT16=
EXTT17=
EXTT18=
EXTT19=
EXTT20=
PLAYORDER=
